<?xml version="1.0" standalone="no"?>
<!DOCTYPE svg PUBLIC "-//W3C//DTD SVG 20010904//EN"
 "http://www.w3.org/TR/2001/REC-SVG-20010904/DTD/svg10.dtd">
<svg version="1.0" xmlns="http://www.w3.org/2000/svg"
 width="2500.000000pt" height="2500.000000pt" viewBox="0 0 2500.000000 2500.000000"
 preserveAspectRatio="xMidYMid meet">
<metadata>
Created by potrace 1.14, written by Peter Selinger 2001-2017
</metadata>
<g transform="translate(0.000000,2500.000000) scale(0.100000,-0.100000)"
fill="#000000" stroke="none">
<path d="M12133 24391 c0 -11 5 -18 9 -15 4 3 5 11 1 19 -7 21 -12 19 -10 -4z"/>
<path d="M12666 24402 c-3 -5 1 -9 9 -9 8 0 12 4 9 9 -3 4 -7 8 -9 8 -2 0 -6
-4 -9 -8z"/>
<path d="M12015 24391 c-3 -5 -2 -12 3 -15 5 -3 9 1 9 9 0 17 -3 19 -12 6z"/>
<path d="M12216 24382 c-3 -4 4 -9 15 -9 23 -2 25 3 4 10 -8 4 -16 3 -19 -1z"/>
<path d="M12340 24380 c-9 -6 -10 -10 -3 -10 6 0 15 5 18 10 8 12 4 12 -15 0z"/>
<path d="M12375 24381 c-3 -5 -2 -12 3 -15 5 -3 9 1 9 9 0 17 -3 19 -12 6z"/>
<path d="M12456 24382 c-3 -4 4 -9 15 -9 23 -2 25 3 4 10 -8 4 -16 3 -19 -1z"/>
<path d="M12075 24360 c3 -5 8 -10 11 -10 2 0 4 5 4 10 0 6 -5 10 -11 10 -5 0
-7 -4 -4 -10z"/>
<path d="M12110 24361 c0 -6 4 -13 10 -16 6 -3 7 1 4 9 -7 18 -14 21 -14 7z"/>
<path d="M12406 24362 c-3 -5 1 -9 9 -9 8 0 12 4 9 9 -3 4 -7 8 -9 8 -2 0 -6
-4 -9 -8z"/>
<path d="M12516 24362 c-3 -5 1 -9 9 -9 8 0 12 4 9 9 -3 4 -7 8 -9 8 -2 0 -6
-4 -9 -8z"/>
<path d="M12604 24362 c4 -3 14 -7 22 -8 9 -1 13 0 10 4 -4 3 -14 7 -22 8 -9
1 -13 0 -10 -4z"/>
<path d="M12306 24333 c-9 -16 -15 -21 -16 -13 0 13 -1 13 -10 0 -5 -8 -10
-10 -10 -4 0 7 -7 15 -16 18 -13 5 -14 3 -6 -7 8 -10 6 -13 -9 -13 -12 0 -18
5 -15 13 8 21 -8 15 -22 -8 -10 -15 -16 -18 -26 -10 -7 6 -16 8 -19 4 -4 -3
-7 -2 -7 4 0 12 -49 12 -68 -1 -18 -11 -63 -15 -56 -5 7 12 -36 2 -54 -13 -13
-11 -14 -11 -7 1 6 11 4 13 -8 8 -18 -7 -41 15 -29 29 4 5 -3 0 -15 -10 -13
-11 -23 -21 -23 -24 0 -2 6 1 13 7 8 6 17 8 20 4 15 -15 5 -23 -28 -23 -28 0
-33 3 -29 18 5 14 4 14 -4 2 -6 -8 -9 -17 -7 -20 1 -3 -4 -12 -13 -20 -14 -13
-15 -12 -9 3 8 22 -1 22 -26 0 -19 -17 -20 -17 -8 4 7 15 8 24 1 28 -6 4 -9 3
-8 -2 2 -4 -6 -19 -16 -33 -11 -14 -16 -18 -13 -7 4 9 2 17 -2 17 -5 0 -11 -5
-13 -12 -2 -6 -20 -13 -39 -14 -65 -5 -100 -15 -93 -26 4 -6 3 -8 -4 -4 -6 3
-9 15 -7 25 2 10 -1 24 -6 32 -6 10 -8 7 -7 -11 2 -41 -1 -52 -12 -45 -6 4 -8
10 -6 14 3 4 -6 7 -20 7 -13 0 -24 -4 -24 -8 0 -5 7 -8 16 -6 10 2 19 -2 21
-9 3 -7 -6 -10 -22 -8 -15 1 -29 -3 -31 -10 -3 -7 -23 -12 -46 -12 -23 0 -44
-5 -46 -11 -2 -6 -10 -8 -19 -5 -11 4 -14 2 -9 -5 5 -8 2 -10 -8 -6 -9 3 -13
10 -10 15 9 15 -3 10 -17 -8 -8 -10 -9 -14 -2 -10 6 4 15 2 19 -4 4 -7 3 -9
-4 -5 -6 3 -16 -2 -22 -11 -10 -16 -11 -16 -6 -1 3 10 1 20 -4 23 -6 4 -10 -1
-10 -9 0 -9 -4 -16 -9 -16 -5 0 -17 -3 -27 -7 -13 -5 -15 -3 -9 7 5 9 4 11 -4
6 -6 -4 -9 -17 -6 -29 2 -12 2 -16 -1 -9 -3 6 -11 9 -16 5 -7 -4 -9 2 -5 17 4
15 3 20 -4 13 -6 -6 -11 -19 -12 -31 0 -11 -4 -19 -8 -16 -4 2 -11 -1 -14 -7
-4 -5 -13 -8 -21 -5 -8 3 -14 1 -14 -5 0 -6 -5 -7 -10 -4 -6 4 -7 12 -3 18 5
8 2 8 -9 0 -8 -7 -19 -9 -23 -5 -5 4 -5 1 0 -7 6 -10 2 -12 -16 -7 -21 6 -21
5 -6 -4 17 -11 15 -30 -4 -30 -6 0 -7 5 -4 10 3 6 2 10 -2 10 -5 0 -13 -10
-18 -22 -6 -14 -17 -22 -29 -20 -11 2 -15 -1 -11 -7 3 -7 0 -8 -9 -5 -9 3 -16
1 -16 -5 0 -6 -9 -11 -21 -11 -13 0 -18 -4 -13 -12 6 -10 5 -10 -8 0 -12 10
-18 9 -28 -3 -7 -8 -10 -21 -7 -29 4 -10 0 -12 -14 -9 -13 4 -19 0 -19 -11 0
-10 -4 -14 -10 -11 -13 8 -52 -14 -45 -25 4 -6 -1 -7 -11 -3 -13 5 -15 3 -9
-8 7 -11 5 -11 -10 1 -17 14 -18 14 -5 -10 7 -14 9 -22 5 -18 -4 4 -17 3 -28
-3 -15 -9 -18 -8 -12 3 3 7 -3 2 -14 -11 -12 -12 -18 -28 -14 -35 4 -6 0 -6
-9 2 -13 10 -18 10 -24 1 -4 -8 -3 -9 4 -5 7 4 12 2 12 -3 0 -6 -7 -11 -15
-11 -8 0 -15 -5 -15 -11 0 -5 -4 -8 -9 -4 -5 3 -12 -4 -16 -14 -3 -11 -15 -23
-25 -26 -11 -3 -19 -11 -17 -18 3 -14 -24 -16 -43 -3 -13 10 -13 9 -1 -7 11
-14 11 -21 3 -29 -9 -9 -12 -9 -12 0 0 7 -5 12 -10 12 -6 0 -9 -6 -8 -12 2 -7
-3 -12 -9 -10 -7 1 -13 -3 -13 -9 0 -6 7 -9 15 -6 8 4 17 1 21 -5 4 -6 3 -8
-4 -4 -6 3 -21 -4 -33 -16 -12 -13 -18 -16 -14 -8 5 9 4 12 -1 7 -5 -5 -9 -14
-9 -20 0 -7 -8 -11 -17 -11 -11 1 -15 -5 -13 -18 2 -10 0 -16 -6 -13 -5 4 -9
-1 -9 -9 0 -14 -11 -20 -32 -17 -4 0 -5 -5 -2 -12 2 -7 -3 -21 -11 -32 -15
-19 -16 -19 -5 4 7 14 8 21 2 17 -6 -3 -13 0 -16 6 -4 9 -5 8 -5 -2 2 -32 -1
-41 -13 -34 -10 6 -10 4 0 -7 15 -16 16 -29 1 -29 -5 0 -7 5 -3 12 4 7 3 8 -4
4 -7 -4 -12 -14 -12 -22 0 -12 -18 -19 -42 -16 -3 1 -12 -6 -20 -15 -11 -14
-11 -16 2 -8 21 13 40 15 40 4 0 -5 -7 -9 -15 -9 -8 0 -15 -5 -15 -11 0 -5 6
-7 13 -3 7 5 7 1 -3 -12 -22 -29 -24 -30 -17 -11 4 11 3 16 -3 12 -6 -3 -10
-13 -10 -21 0 -8 -5 -14 -11 -14 -5 0 -7 6 -3 13 6 8 3 8 -9 -2 -12 -10 -14
-18 -7 -31 9 -16 6 -18 -20 -15 -16 2 -33 -1 -36 -7 -4 -7 -3 -8 4 -4 7 4 20
2 29 -3 16 -9 15 -10 -7 -11 -20 0 -22 -2 -10 -10 12 -7 12 -10 1 -10 -7 0
-11 -6 -8 -14 4 -10 1 -13 -9 -9 -11 4 -15 0 -12 -13 2 -12 -2 -18 -11 -16 -9
2 -11 -3 -7 -14 5 -13 4 -15 -7 -5 -12 9 -14 7 -12 -13 2 -19 -1 -23 -13 -19
-11 5 -13 3 -7 -7 6 -10 4 -12 -8 -7 -9 3 -16 3 -16 -1 4 -27 -2 -32 -23 -22
-22 11 -22 11 -3 -5 18 -14 21 -14 32 2 7 9 13 13 13 8 0 -5 -9 -19 -21 -31
-11 -12 -21 -31 -22 -42 0 -11 -5 -19 -9 -16 -4 3 -5 11 -2 18 3 8 1 17 -4 20
-5 3 -8 -6 -6 -20 1 -14 -3 -27 -10 -30 -7 -3 -13 -12 -13 -20 0 -9 6 -13 14
-10 8 3 11 1 8 -5 -4 -5 -15 -7 -25 -4 -21 7 -39 -19 -35 -48 2 -9 -1 -14 -7
-11 -17 11 -37 -28 -25 -51 9 -19 9 -19 -9 -5 -10 8 -16 10 -11 5 4 -4 0 -19
-9 -33 -12 -18 -12 -22 -3 -17 8 4 3 -2 -10 -13 -18 -15 -21 -21 -10 -25 11
-4 11 -6 1 -6 -8 -1 -10 -6 -6 -13 5 -8 0 -7 -11 2 -10 8 -16 10 -12 4 3 -6 2
-28 -4 -48 -8 -30 -14 -37 -30 -33 -10 3 -17 1 -14 -3 3 -5 2 -10 -2 -13 -5
-2 -3 -2 4 -1 7 2 15 -1 18 -6 4 -6 -4 -10 -17 -11 -13 0 -17 -3 -10 -6 19 -7
4 -23 -16 -16 -16 6 -16 6 1 -11 18 -19 23 -31 8 -21 -16 10 -23 -15 -10 -33
10 -12 8 -12 -9 2 -22 19 -22 19 -16 1 6 -14 4 -17 -7 -11 -8 4 -7 1 2 -5 15
-11 13 -15 -13 -41 -16 -15 -24 -28 -18 -28 6 0 2 -10 -10 -22 -11 -12 -20
-27 -20 -32 0 -6 5 -4 10 4 6 9 10 10 10 3 0 -6 -5 -15 -10 -18 -6 -4 -7 -12
-3 -18 4 -7 -1 -6 -10 2 -15 12 -17 12 -11 -2 3 -8 -2 -26 -11 -40 -9 -14 -15
-29 -14 -33 3 -20 -2 -28 -10 -16 -6 10 -10 9 -14 -7 -3 -12 -1 -19 4 -15 5 3
9 0 9 -5 0 -6 -5 -11 -11 -11 -5 0 -8 -4 -4 -9 3 -5 1 -12 -5 -16 -5 -3 -10
-1 -10 6 0 7 -2 10 -5 7 -10 -9 7 -38 18 -31 6 4 7 1 3 -6 -5 -7 -10 -10 -13
-7 -3 3 -15 0 -27 -6 -11 -7 -24 -12 -28 -13 -19 -1 -14 -11 7 -11 13 0 21 4
18 10 -4 5 -1 6 6 2 9 -6 8 -13 -6 -26 -10 -9 -22 -15 -27 -12 -5 3 -5 -1 -1
-9 13 -20 13 -50 1 -46 -6 2 -10 11 -8 20 1 8 -1 18 -6 21 -12 7 -9 -48 3 -56
6 -5 5 -8 -3 -8 -7 0 -10 -4 -7 -10 3 -5 2 -10 -3 -10 -6 0 -8 -10 -5 -22 4
-19 3 -20 -7 -8 -9 12 -11 10 -7 -12 2 -17 -1 -29 -10 -32 -22 -9 -26 -7 -19
10 3 8 2 12 -4 9 -6 -3 -10 -13 -10 -21 0 -8 -6 -14 -12 -15 -7 0 -20 -2 -28
-4 -23 -5 -413 -134 -435 -144 -11 -5 -85 -32 -165 -60 -80 -29 -154 -56 -165
-61 -11 -5 -67 -28 -125 -50 -58 -23 -123 -50 -145 -60 -22 -10 -68 -30 -103
-44 -218 -92 -572 -264 -815 -397 -160 -87 -165 -90 -222 -123 -27 -17 -59
-35 -70 -40 -57 -31 -270 -162 -273 -168 -2 -5 -8 -8 -13 -8 -9 0 -443 -286
-472 -310 -7 -6 -66 -50 -132 -97 -66 -47 -133 -97 -150 -110 -16 -12 -41 -32
-55 -42 -118 -90 -443 -356 -496 -406 -6 -5 -44 -39 -85 -75 -89 -78 -169
-151 -225 -205 -282 -271 -468 -464 -708 -735 -230 -259 -546 -667 -758 -980
-110 -161 -288 -438 -288 -446 0 -3 -11 -20 -25 -38 -14 -18 -25 -35 -25 -39
0 -3 -27 -50 -59 -105 -32 -55 -73 -126 -91 -159 -18 -32 -55 -98 -82 -148
-80 -144 -300 -597 -368 -755 -34 -80 -68 -158 -75 -175 -52 -118 -192 -487
-255 -675 -42 -126 -156 -495 -165 -534 -2 -12 -21 -82 -40 -156 -31 -117 -89
-354 -101 -415 -5 -26 -13 -64 -20 -95 -16 -68 -72 -373 -80 -430 -2 -19 -8
-57 -13 -85 -6 -27 -13 -72 -16 -98 -4 -27 -8 -56 -10 -65 -1 -10 -6 -46 -10
-82 -4 -36 -8 -72 -10 -80 -2 -9 -6 -43 -10 -75 -4 -33 -8 -71 -10 -83 -2 -13
-7 -63 -11 -110 -3 -48 -8 -95 -9 -104 -2 -9 -7 -66 -10 -125 -4 -59 -8 -130
-10 -158 -28 -409 -24 -1026 9 -1435 3 -36 8 -94 11 -130 5 -69 14 -155 20
-205 2 -16 7 -55 10 -85 3 -30 8 -73 11 -95 3 -22 7 -54 8 -70 2 -17 6 -44 9
-60 3 -17 9 -52 12 -80 3 -27 10 -75 15 -105 5 -30 12 -68 14 -85 6 -35 34
-197 42 -240 3 -16 12 -64 21 -105 8 -41 16 -82 18 -91 15 -77 52 -237 84
-367 38 -150 50 -194 91 -342 10 -36 25 -90 33 -120 21 -75 157 -485 197 -590
17 -47 35 -96 39 -110 11 -32 142 -360 171 -425 27 -62 43 -98 45 -105 8 -24
112 -245 203 -430 66 -134 148 -288 257 -485 51 -93 229 -390 285 -475 30 -47
60 -93 65 -102 6 -9 25 -37 42 -62 18 -26 33 -51 33 -55 0 -4 9 -16 20 -26 11
-10 20 -24 20 -31 0 -7 3 -14 8 -16 4 -1 27 -32 51 -68 25 -36 53 -76 63 -90
10 -14 60 -81 111 -150 50 -69 94 -127 97 -130 3 -3 25 -31 48 -63 49 -66 306
-380 356 -436 18 -20 77 -85 131 -146 55 -60 104 -115 109 -121 392 -414 565
-585 786 -774 14 -12 36 -31 50 -43 132 -114 296 -248 425 -347 61 -46 115
-88 120 -93 6 -4 53 -39 105 -77 52 -38 100 -73 105 -78 6 -4 33 -23 60 -42
28 -19 55 -38 60 -43 11 -9 332 -220 405 -265 25 -16 71 -45 102 -65 32 -21
60 -37 63 -37 2 0 28 -15 57 -33 29 -19 73 -45 98 -59 25 -14 63 -35 85 -48
140 -80 225 -125 440 -234 168 -85 301 -148 420 -201 28 -13 76 -34 108 -49
32 -14 60 -26 62 -26 2 0 28 -11 57 -24 130 -58 473 -188 693 -263 138 -47
531 -168 575 -178 8 -2 87 -22 175 -45 88 -23 171 -44 185 -46 14 -3 52 -11
85 -19 68 -17 200 -45 230 -50 11 -2 65 -13 120 -24 89 -18 142 -27 253 -46
41 -7 297 -45 337 -50 47 -6 116 -15 160 -20 22 -2 60 -7 85 -10 44 -5 96 -10
195 -20 448 -44 1107 -52 1630 -21 119 7 363 29 470 41 22 3 63 7 90 10 65 8
115 14 142 19 12 3 46 7 75 11 54 6 73 8 143 19 60 10 98 16 120 20 11 2 54 9
95 16 41 6 91 16 110 20 19 5 51 11 70 14 19 3 58 10 85 16 28 5 61 13 75 15
14 3 36 8 50 11 14 3 32 7 40 9 104 23 226 52 370 90 96 25 183 47 193 50 43
10 361 107 462 140 260 86 713 259 887 339 31 14 59 26 61 26 20 0 553 262
736 362 80 43 147 78 149 78 3 0 13 6 21 14 9 7 41 26 71 42 30 16 57 31 60
35 3 3 32 20 65 39 244 137 904 584 1035 702 8 7 31 24 50 38 19 13 41 30 48
37 8 7 30 26 50 41 21 15 39 29 42 32 3 3 25 21 50 40 24 19 56 46 70 59 14
13 41 35 60 50 19 14 41 33 50 41 15 14 106 94 156 137 131 112 562 534 709
693 106 116 159 174 220 245 33 39 65 76 72 83 31 32 223 271 223 277 0 4 6
13 13 20 27 31 37 44 37 50 0 4 6 12 13 19 14 15 180 238 293 396 224 311 506
768 696 1125 89 168 298 595 298 609 0 2 18 44 41 93 65 141 69 151 69 156 0
2 9 25 20 51 12 25 21 48 21 51 0 2 11 31 25 62 15 32 28 65 30 73 2 8 20 55
40 105 20 49 38 97 39 105 2 8 21 62 43 120 34 91 101 298 162 495 10 33 32
112 49 175 18 63 40 147 51 185 19 72 33 133 30 137 -1 2 3 15 9 31 6 15 13
38 15 50 3 12 12 54 20 92 9 39 19 81 21 95 5 25 16 75 21 95 1 6 5 28 9 50 3
22 10 56 15 75 5 19 12 53 15 75 3 22 10 63 16 90 5 28 11 59 13 70 2 11 9 56
16 100 17 121 20 138 25 165 5 27 12 78 20 150 3 25 8 63 10 85 14 105 24 196
31 285 3 41 7 89 9 105 1 17 6 71 9 120 39 532 35 1101 -9 1620 -2 22 -6 69
-9 105 -3 36 -7 81 -10 100 -6 50 -18 150 -21 185 -12 125 -79 554 -120 758
-3 15 -7 39 -10 55 -3 15 -10 47 -15 72 -6 25 -12 54 -14 65 -2 11 -16 72 -31
135 -130 570 -327 1175 -557 1720 -41 96 -54 126 -136 305 -38 83 -163 342
-191 395 -152 289 -357 644 -462 803 -22 32 -39 60 -39 63 0 8 -212 318 -299
437 -47 65 -102 140 -121 167 -68 94 -312 403 -375 474 -5 6 -37 43 -70 81
-33 39 -64 75 -70 81 -5 6 -39 44 -75 84 -223 252 -516 544 -831 830 -15 14
-51 45 -80 70 -29 25 -57 50 -63 55 -12 11 -184 155 -201 168 -5 4 -21 17 -35
28 -14 11 -40 33 -59 47 -19 15 -39 32 -45 37 -6 6 -29 23 -51 40 -22 16 -45
34 -51 40 -6 5 -22 17 -34 25 -12 8 -32 23 -44 33 -85 72 -625 444 -752 518
-22 13 -112 67 -200 120 -317 191 -794 438 -1095 567 -24 11 -64 28 -89 39
-25 12 -103 44 -175 73 -71 29 -143 58 -160 65 -37 17 -159 63 -280 106 -179
63 -187 67 -179 82 5 8 2 8 -9 -2 -20 -16 -23 -1 -4 18 10 11 8 13 -8 9 -16
-4 -20 1 -22 24 -1 16 2 26 7 23 6 -4 10 -1 10 4 0 15 -13 14 -29 -1 -10 -9
-12 -9 -7 -1 3 6 -2 16 -11 22 -10 6 -13 11 -6 11 7 0 10 7 7 15 -4 8 -1 16 5
16 6 1 16 2 23 3 15 1 23 26 8 26 -6 0 -8 -5 -4 -12 5 -7 3 -8 -6 -3 -10 6
-10 10 2 19 8 6 16 14 16 19 3 12 17 3 16 -11 -2 -10 1 -10 12 -1 16 13 19 33
4 24 -5 -3 -10 1 -10 9 0 9 -1 19 -1 24 -1 4 9 13 22 19 13 7 18 13 11 13 -7
0 -11 4 -7 10 3 5 13 7 23 4 10 -3 9 0 -4 8 -18 10 -19 15 -9 25 8 8 16 8 22
2 16 -16 7 39 -9 59 -12 15 -11 16 5 3 16 -13 19 -13 17 0 -5 29 0 38 18 33
15 -5 15 -4 1 5 -10 6 -15 22 -14 43 2 18 0 38 -3 43 -10 17 -11 35 -1 29 5
-3 7 -9 4 -14 -3 -5 -1 -11 4 -14 5 -4 8 2 6 11 -1 10 3 24 9 32 8 11 8 13 -1
7 -7 -4 -14 -2 -14 3 -1 6 -2 17 -3 24 -1 6 2 23 6 36 8 22 7 23 -9 10 -16
-13 -17 -12 -4 3 11 15 11 25 -2 63 -9 25 -12 43 -6 40 5 -4 9 -13 9 -22 0 -9
3 -13 6 -10 4 4 1 21 -7 39 -7 18 -12 43 -11 55 2 14 -2 23 -10 23 -10 0 -9 3
2 10 10 6 11 10 3 10 -7 0 -13 7 -13 16 0 14 2 15 17 3 12 -10 11 -5 -4 17
-21 29 -21 32 -5 49 16 17 16 17 -9 1 -22 -14 -26 -14 -26 -1 0 8 4 12 8 10 4
-3 9 1 12 9 4 10 -1 12 -16 9 -22 -5 -22 -5 -2 10 20 16 20 16 -3 10 -21 -5
-22 -3 -17 26 3 18 2 30 -2 28 -5 -3 -13 1 -20 8 -10 11 -10 15 0 19 9 5 9 7
0 12 -7 3 -13 11 -13 19 0 7 -7 18 -15 25 -14 11 -14 15 2 33 18 20 18 20 -10
2 -15 -10 -27 -14 -26 -9 1 5 0 12 -1 17 -7 20 -4 33 10 45 13 11 12 11 -7 3
-30 -15 -38 -14 -23 4 16 19 6 20 -13 0 -13 -12 -15 -12 -16 8 -1 42 -4 56
-13 51 -5 -3 -6 -11 -2 -17 3 -7 -2 -3 -10 7 -9 11 -16 25 -16 30 0 6 -5 4
-11 -4 -9 -13 -10 -13 -6 2 4 12 -5 23 -29 37 -19 11 -34 27 -34 36 0 8 -5 15
-11 15 -5 0 -7 -5 -3 -12 4 -7 3 -8 -5 -4 -6 4 -9 12 -6 17 4 5 1 17 -4 26 -6
10 -11 12 -11 6 0 -21 -14 -15 -32 15 -10 15 -18 22 -18 15 0 -6 5 -15 10 -18
6 -3 10 -11 10 -17 0 -6 -8 -1 -19 10 -10 12 -21 19 -25 15 -12 -12 -6 13 7
26 10 11 9 12 -2 6 -8 -4 -17 -2 -23 6 -6 10 -7 6 -3 -11 5 -21 4 -22 -5 -8
-7 11 -17 15 -28 11 -15 -6 -15 -5 -3 10 12 15 12 17 -3 11 -11 -4 -16 -2 -14
6 2 7 -5 14 -15 15 -9 2 -15 -1 -11 -6 3 -5 10 -6 16 -3 7 5 8 2 4 -5 -6 -9
-12 -9 -25 3 -14 13 -20 13 -31 3 -8 -6 -6 -2 4 11 11 12 16 25 13 29 -4 3 -7
1 -7 -5 0 -16 -17 -15 -23 1 -2 6 -3 4 -2 -5 2 -10 -1 -18 -6 -18 -5 0 -9 5
-9 12 0 6 -3 8 -7 5 -3 -4 -15 0 -25 10 -10 9 -18 13 -18 8 0 -4 -12 0 -26 10
-15 9 -23 12 -20 6 4 -6 5 -11 2 -11 -3 0 -13 12 -21 28 -9 15 -13 18 -10 7 3
-11 3 -16 -1 -12 -4 4 -14 1 -22 -6 -13 -9 -14 -9 -8 1 4 7 2 12 -4 12 -6 0
-8 5 -4 11 4 8 9 7 15 -2 6 -10 9 -10 9 -2 0 19 -17 24 -30 8 -18 -21 -35 -19
-19 3 7 9 9 14 5 10 -5 -4 -16 -2 -24 5 -13 10 -15 9 -9 -6 5 -14 3 -16 -11
-9 -9 5 -25 8 -34 7 -10 -2 -18 3 -18 11 0 7 -6 11 -14 8 -8 -3 -25 0 -38 7
-13 7 -26 12 -30 11 -4 -1 -4 6 -1 15 4 10 2 14 -5 9 -6 -3 -14 3 -17 15 -6
17 -9 19 -16 8 -6 -10 -9 -11 -9 -1 0 6 -7 12 -16 12 -9 0 -12 5 -8 12 5 8 2
9 -9 5 -9 -3 -16 -3 -16 1 3 19 -2 25 -11 12 -8 -13 -10 -12 -11 5 -1 11 -1
27 0 35 2 13 1 13 -8 0 -5 -8 -7 -18 -5 -22 3 -4 -2 -5 -11 -2 -12 5 -13 9 -4
21 10 11 9 13 -2 11 -8 -2 -13 4 -13 14 1 10 -2 15 -8 12 -5 -3 -6 -15 -3 -27
4 -12 3 -17 -2 -11 -10 13 -55 39 -65 36 -3 -1 -12 6 -20 16 -11 15 -11 16 3
4 14 -10 18 -10 22 1 4 11 -3 13 -29 10 -27 -3 -34 0 -34 14 0 14 -2 15 -9 4
-7 -11 -9 -11 -13 0 -4 12 -8 11 -23 -1 -11 -9 -16 -10 -11 -2 7 11 -5 17 -27
13 -5 -1 -6 3 -2 9 3 5 -1 10 -10 10 -10 0 -14 5 -9 13 6 10 4 10 -7 0 -16
-16 -29 -17 -29 -2 0 5 5 7 10 4 6 -3 10 -1 10 4 0 14 -13 14 -27 0 -8 -8 -13
-7 -18 2 -6 8 -4 10 5 4 9 -5 11 -4 6 4 -6 9 -11 9 -24 -1 -13 -11 -14 -11 -8
1 7 10 3 12 -13 6 -13 -4 -21 -2 -21 5 0 6 5 8 10 5 6 -3 10 -1 10 5 0 7 -7 9
-16 6 -12 -5 -15 -2 -10 9 3 10 2 13 -5 10 -6 -4 -8 -13 -5 -21 3 -8 1 -14 -4
-14 -10 0 -14 15 -11 34 1 5 -4 5 -11 -1 -7 -5 -23 -13 -35 -15 -16 -4 -20 -2
-16 10 4 10 2 13 -5 8 -6 -3 -13 -2 -16 2 -6 9 -35 10 -51 0 -17 -10 -80 -1
-77 11 3 17 -9 13 -24 -6 -13 -17 -14 -17 -8 0 7 19 -20 25 -31 7 -4 -6 -17
-4 -36 5 -16 9 -35 13 -41 9 -8 -5 -9 -1 -5 11 7 17 6 17 -20 0 -16 -10 -25
-14 -21 -10 4 4 0 14 -8 23 -13 12 -17 13 -24 3 -5 -10 -9 -10 -14 -2 -4 6
-11 9 -16 6 -5 -3 -11 -1 -15 4 -3 6 -13 7 -21 4 -11 -4 -15 0 -12 13 3 22
-27 27 -51 10 -12 -9 -13 -7 -7 8 7 19 6 19 -13 2 -20 -18 -21 -18 -30 8 -12
30 -14 31 -35 10 -12 -12 -16 -12 -16 -2 0 10 -3 9 -11 -2 -8 -12 -9 -12 -7 5
3 22 -18 28 -41 11 -12 -9 -13 -8 -6 3 6 11 4 13 -9 8 -10 -4 -15 -3 -11 3 3
5 -4 14 -16 20 -13 7 -19 8 -15 2 3 -6 2 -14 -4 -17 -6 -4 -10 -3 -9 2 3 19
-2 31 -15 36 -11 4 -13 1 -9 -10 4 -11 2 -14 -5 -9 -7 4 -12 14 -12 23 0 13
-3 13 -15 3 -8 -7 -15 -8 -15 -3 0 5 -7 10 -15 11 -8 1 -22 3 -30 4 -8 1 -12
5 -9 10 3 5 9 6 13 4 4 -3 8 1 8 9 0 8 -4 15 -9 15 -4 0 -8 -4 -8 -10 0 -19
-37 -10 -49 13 -11 22 -11 22 -5 -3 4 -19 3 -22 -5 -10 -6 8 -11 11 -11 6 0
-5 -7 -3 -15 4 -8 6 -19 9 -25 5 -6 -4 -10 -3 -9 2 4 22 -3 30 -26 28 -14 -2
-27 1 -31 6 -3 5 -10 6 -16 3 -7 -4 -8 -2 -4 5 4 6 11 9 15 7 4 -3 8 2 8 10 0
10 -4 11 -11 4 -13 -13 -39 -13 -31 0 9 14 -9 12 -24 -2 -10 -11 -11 -10 -6 3
4 10 1 20 -6 25 -8 4 -10 3 -5 -4 11 -19 -5 -14 -21 6 -8 9 -12 12 -9 5 4 -6
1 -15 -5 -19 -7 -4 -9 -3 -6 2 3 6 2 16 -4 24 -7 13 -9 13 -9 0 0 -11 -2 -12
-8 -3 -4 7 -23 13 -41 15 -18 1 -35 6 -38 11 -2 4 -12 2 -21 -5 -14 -10 -15
-10 -4 2 16 18 16 35 -1 22 -9 -8 -16 -6 -24 7 -6 10 -23 19 -37 19 -14 0 -23
-4 -21 -8 6 -10 -15 -7 -34 4 -8 5 -17 3 -23 -5 -7 -11 -8 -10 -6 5 2 10 -3
21 -11 24 -8 3 -11 0 -7 -6 3 -6 2 -14 -4 -17 -6 -4 -9 -1 -8 7 2 8 -5 12 -19
11 -16 -2 -23 3 -23 15 0 12 -3 13 -8 5 -4 -7 -17 -11 -29 -10 -12 0 -19 5
-17 9 3 4 0 8 -5 8 -6 0 -11 -5 -11 -10 0 -6 -6 -5 -14 2 -8 7 -11 18 -9 23 3
6 -2 3 -12 -6 -12 -12 -25 -15 -44 -9 -14 4 -34 6 -43 4 -10 -1 -18 0 -18 4 0
3 8 15 18 26 17 20 17 21 -3 5 -33 -26 -43 -30 -51 -18 -4 7 -3 9 4 5 6 -3 14
-1 18 6 4 7 4 10 -1 6 -4 -4 -14 -3 -21 3 -9 8 -12 4 -9 -17 2 -26 2 -27 -11
-9 -8 10 -14 14 -14 8 0 -7 -9 -9 -22 -5 l-22 5 22 8 c34 13 26 19 -8 8 -18
-7 -27 -15 -23 -22 3 -7 -3 -4 -14 6 -13 11 -23 14 -27 8 -4 -5 -18 -8 -32 -5
-19 3 -24 1 -18 -8 6 -10 4 -10 -7 0 -12 11 -12 14 1 22 9 6 10 10 3 10 -7 0
-17 -8 -22 -17 -6 -10 -11 -12 -11 -5 0 19 -30 14 -31 -5 0 -13 -3 -12 -10 5
-5 13 -7 28 -3 33 3 5 3 9 0 9 -3 0 -12 -12 -20 -27z m-196 -23 c0 -5 -5 -10
-11 -10 -5 0 -7 5 -4 10 3 6 8 10 11 10 2 0 4 -4 4 -10z m-100 -10 c0 -5 -5
-10 -11 -10 -5 0 -7 5 -4 10 3 6 8 10 11 10 2 0 4 -4 4 -10z m1008 -81 c3 -11
2 -11 -7 1 -10 13 -12 13 -21 0 -5 -8 -10 -10 -10 -4 0 27 31 30 38 3z m-1575
-44 c-3 -9 -8 -14 -10 -11 -3 3 -2 9 2 15 9 16 15 13 8 -4z m-280 -109 c4 -10
1 -13 -8 -9 -8 3 -12 9 -9 14 7 12 11 11 17 -5z m-201 -108 c-7 -7 -12 -8 -12
-2 0 14 12 26 19 19 2 -3 -1 -11 -7 -17z m2898 -48 c-18 -12 -30 -13 -30 -2 0
4 10 9 22 9 18 2 20 0 8 -7z m430 -90 c0 -5 -5 -10 -11 -10 -5 0 -7 5 -4 10 3
6 8 10 11 10 2 0 4 -4 4 -10z m1245 -560 c-3 -5 -12 -10 -18 -10 -7 0 -6 4 3
10 19 12 23 12 15 0z m-5488 -299 c0 -11 -5 -18 -9 -15 -4 3 -5 11 -1 19 7 21
12 19 10 -4z m-37 -61 c0 -5 -5 -10 -11 -10 -5 0 -7 5 -4 10 3 6 8 10 11 10 2
0 4 -4 4 -10z m5860 -140 c0 -5 -4 -10 -10 -10 -5 0 -10 5 -10 10 0 6 5 10 10
10 6 0 10 -4 10 -10z m10 -80 c0 -5 -5 -10 -11 -10 -5 0 -7 5 -4 10 3 6 8 10
11 10 2 0 4 -4 4 -10z m-6135 -319 c3 -5 2 -12 -3 -15 -5 -3 -9 1 -9 9 0 17 3
19 12 6z"/>
<path d="M12036 24341 c-3 -5 2 -15 12 -22 15 -12 16 -12 5 2 -7 9 -10 19 -6
22 3 4 4 7 0 7 -3 0 -8 -4 -11 -9z"/>
<path d="M12770 24340 c0 -5 5 -10 11 -10 5 0 7 5 4 10 -3 6 -8 10 -11 10 -2
0 -4 -4 -4 -10z"/>
<path d="M12185 24329 c-4 -6 -5 -12 -2 -15 2 -3 7 2 10 11 7 17 1 20 -8 4z"/>
<path d="M12646 24312 c-3 -5 1 -9 9 -9 8 0 12 4 9 9 -3 4 -7 8 -9 8 -2 0 -6
-4 -9 -8z"/>
<path d="M12793 24295 c0 -8 4 -12 9 -9 5 3 6 10 3 15 -9 13 -12 11 -12 -6z"/>
<path d="M12841 24284 c0 -11 3 -14 6 -6 3 7 2 16 -1 19 -3 4 -6 -2 -5 -13z"/>
<path d="M11656 24273 c-6 -14 -5 -15 5 -6 7 7 10 15 7 18 -3 3 -9 -2 -12 -12z"/>
<path d="M11717 24277 c-3 -8 1 -14 8 -14 7 0 11 6 8 14 -3 7 -6 13 -8 13 -2
0 -5 -6 -8 -13z"/>
<path d="M12914 24273 c21 -25 36 -30 36 -11 0 6 -3 8 -7 5 -3 -4 -16 1 -27
10 -21 18 -21 18 -2 -4z"/>
<path d="M13033 24255 c0 -8 4 -12 9 -9 5 3 6 10 3 15 -9 13 -12 11 -12 -6z"/>
<path d="M13095 24260 c-3 -5 -1 -10 4 -10 6 0 11 5 11 10 0 6 -2 10 -4 10 -3
0 -8 -4 -11 -10z"/>
<path d="M11406 24242 c-3 -5 1 -9 9 -9 8 0 12 4 9 9 -3 4 -7 8 -9 8 -2 0 -6
-4 -9 -8z"/>
<path d="M13134 24222 c3 -5 0 -13 -6 -15 -9 -4 -10 -6 -1 -6 17 -1 25 16 12
25 -7 4 -9 3 -5 -4z"/>
<path d="M11396 24207 c3 -10 9 -15 12 -12 3 3 0 11 -7 18 -10 9 -11 8 -5 -6z"/>
<path d="M13075 24210 c3 -5 8 -10 11 -10 2 0 4 5 4 10 0 6 -5 10 -11 10 -5 0
-7 -4 -4 -10z"/>
<path d="M13276 24207 c3 -10 9 -15 12 -12 3 3 0 11 -7 18 -10 9 -11 8 -5 -6z"/>
<path d="M11275 24181 c-3 -5 -2 -12 3 -15 5 -3 9 1 9 9 0 17 -3 19 -12 6z"/>
<path d="M13316 24173 c-6 -14 -5 -15 5 -6 7 7 10 15 7 18 -3 3 -9 -2 -12 -12z"/>
<path d="M13270 24159 c0 -5 5 -7 10 -4 6 3 10 8 10 11 0 2 -4 4 -10 4 -5 0
-10 -5 -10 -11z"/>
<path d="M13308 24128 c-8 -20 17 -18 35 2 10 12 9 12 -5 2 -13 -10 -17 -10
-20 0 -3 8 -6 7 -10 -4z"/>
<path d="M11154 24119 c-4 -7 -3 -10 3 -6 6 4 16 0 23 -8 15 -18 30 -20 30 -3
0 6 -3 8 -7 5 -3 -4 -14 0 -24 9 -13 12 -19 12 -25 3z"/>
<path d="M13473 24115 c0 -8 4 -12 9 -9 5 3 6 10 3 15 -9 13 -12 11 -12 -6z"/>
<path d="M13385 24091 c-3 -5 -2 -12 3 -15 5 -3 9 1 9 9 0 17 -3 19 -12 6z"/>
<path d="M13620 24060 c-12 -7 -10 -9 7 -7 12 0 19 5 17 9 -6 10 -6 10 -24 -2z"/>
<path d="M10946 24042 c-2 -4 4 -8 14 -8 10 0 16 4 14 8 -3 4 -9 8 -14 8 -5 0
-11 -4 -14 -8z"/>
<path d="M10994 24038 c-4 -7 -4 -10 1 -6 4 4 15 2 24 -5 14 -11 14 -10 2 6
-16 20 -18 21 -27 5z"/>
<path d="M11049 24038 c14 -19 32 -15 30 5 0 8 -2 8 -6 -1 -4 -10 -8 -10 -21
0 -15 12 -16 11 -3 -4z"/>
<path d="M13570 24041 c0 -6 4 -13 10 -16 6 -3 7 1 4 9 -7 18 -14 21 -14 7z"/>
<path d="M13633 24015 c0 -8 4 -12 9 -9 5 3 6 10 3 15 -9 13 -12 11 -12 -6z"/>
<path d="M13644 23989 c-4 -7 -3 -9 4 -5 5 3 13 0 15 -6 4 -9 6 -10 6 -1 1 17
-16 25 -25 12z"/>
<path d="M13710 23972 c9 -19 14 -21 26 -11 8 6 14 14 14 17 0 3 -5 1 -12 -6
-9 -9 -15 -7 -25 6 -13 15 -13 14 -3 -6z"/>
<path d="M10815 23941 c-3 -5 -2 -12 3 -15 5 -3 9 1 9 9 0 17 -3 19 -12 6z"/>
<path d="M13781 23934 c0 -11 3 -14 6 -6 3 7 2 16 -1 19 -3 4 -6 -2 -5 -13z"/>
<path d="M13890 23940 c0 -5 5 -10 11 -10 5 0 7 5 4 10 -3 6 -8 10 -11 10 -2
0 -4 -4 -4 -10z"/>
<path d="M13975 23940 c-3 -5 -1 -10 4 -10 6 0 11 5 11 10 0 6 -2 10 -4 10 -3
0 -8 -4 -11 -10z"/>
<path d="M13995 23911 c-3 -5 -2 -12 3 -15 5 -3 9 1 9 9 0 17 -3 19 -12 6z"/>
<path d="M13910 23900 c0 -4 7 -7 15 -6 23 3 26 12 5 13 -11 1 -20 -2 -20 -7z"/>
<path d="M14173 23895 c0 -8 4 -12 9 -9 5 3 6 10 3 15 -9 13 -12 11 -12 -6z"/>
<path d="M10780 23886 c0 -2 8 -10 18 -17 15 -13 16 -12 3 4 -13 16 -21 21
-21 13z"/>
<path d="M10695 23871 c-3 -5 -2 -12 3 -15 5 -3 9 1 9 9 0 17 -3 19 -12 6z"/>
<path d="M14095 23869 c-4 -6 -14 -8 -24 -4 -10 4 -13 3 -6 -4 18 -17 37 -17
40 2 4 19 -1 22 -10 6z"/>
<path d="M10745 23860 c-3 -6 1 -7 9 -4 18 7 21 14 7 14 -6 0 -13 -4 -16 -10z"/>
<path d="M14185 23860 c-3 -6 1 -7 9 -4 18 7 21 14 7 14 -6 0 -13 -4 -16 -10z"/>
<path d="M14265 23860 c-3 -6 1 -7 9 -4 18 7 21 14 7 14 -6 0 -13 -4 -16 -10z"/>
<path d="M14235 23850 c-4 -6 -10 -8 -15 -5 -5 3 -11 1 -14 -4 -8 -13 22 -7
36 7 7 7 9 12 6 12 -4 0 -10 -5 -13 -10z"/>
<path d="M14507 23819 c7 -7 15 -10 18 -7 3 3 -2 9 -12 12 -14 6 -15 5 -6 -5z"/>
<path d="M10686 23798 c3 -5 10 -6 15 -3 13 9 11 12 -6 12 -8 0 -12 -4 -9 -9z"/>
<path d="M10614 23778 c-4 -7 -4 -10 1 -6 4 4 15 2 24 -5 14 -11 14 -10 2 6
-16 20 -18 21 -27 5z"/>
<path d="M14616 23778 c3 -5 10 -6 15 -3 13 9 11 12 -6 12 -8 0 -12 -4 -9 -9z"/>
<path d="M10659 23753 c-13 -16 -12 -17 4 -4 16 13 21 21 13 21 -2 0 -10 -8
-17 -17z"/>
<path d="M14565 23759 c-4 -6 -5 -12 -2 -15 2 -3 7 2 10 11 7 17 1 20 -8 4z"/>
<path d="M14690 23739 c0 -5 5 -7 10 -4 6 3 10 8 10 11 0 2 -4 4 -10 4 -5 0
-10 -5 -10 -11z"/>
<path d="M10610 23726 c0 -2 7 -7 16 -10 8 -3 12 -2 9 4 -6 10 -25 14 -25 6z"/>
<path d="M14710 23676 c0 -2 7 -7 16 -10 8 -3 12 -2 9 4 -6 10 -25 14 -25 6z"/>
<path d="M10513 23645 c0 -8 4 -12 9 -9 5 3 6 10 3 15 -9 13 -12 11 -12 -6z"/>
<path d="M14830 23626 c0 -2 7 -7 16 -10 8 -3 12 -2 9 4 -6 10 -25 14 -25 6z"/>
<path d="M14890 23619 c0 -5 5 -7 10 -4 6 3 10 8 10 11 0 2 -4 4 -10 4 -5 0
-10 -5 -10 -11z"/>
<path d="M14915 23570 c8 -9 22 -17 30 -17 17 0 9 12 -8 12 -7 1 -11 6 -10 11
1 6 -5 11 -13 11 -12 0 -12 -3 1 -17z"/>
<path d="M10461 23572 c-1 -8 -6 -10 -13 -6 -10 5 -10 4 -1 -6 15 -16 28 -8
20 12 -4 11 -6 11 -6 0z"/>
<path d="M14967 23526 c-16 -13 -16 -14 -1 -20 9 -4 19 -4 22 -1 3 3 0 5 -8 5
-10 0 -10 3 0 15 15 18 11 19 -13 1z"/>
<path d="M15046 23522 c-3 -5 1 -9 9 -9 8 0 12 4 9 9 -3 4 -7 8 -9 8 -2 0 -6
-4 -9 -8z"/>
<path d="M15130 23500 c0 -5 5 -10 11 -10 5 0 7 5 4 10 -3 6 -8 10 -11 10 -2
0 -4 -4 -4 -10z"/>
<path d="M15024 23492 c4 -3 14 -7 22 -8 9 -1 13 0 10 4 -4 3 -14 7 -22 8 -9
1 -13 0 -10 -4z"/>
<path d="M15193 23487 c0 -8 6 -14 14 -14 9 0 10 4 2 14 -6 7 -12 13 -14 13
-1 0 -2 -6 -2 -13z"/>
<path d="M10356 23482 c-3 -5 1 -9 9 -9 8 0 12 4 9 9 -3 4 -7 8 -9 8 -2 0 -6
-4 -9 -8z"/>
<path d="M15224 23440 c2 -16 20 -14 24 2 3 10 2 10 -6 -1 -7 -9 -11 -10 -15
-2 -4 7 -5 8 -3 1z"/>
<path d="M15270 23446 c0 -2 7 -7 16 -10 8 -3 12 -2 9 4 -6 10 -25 14 -25 6z"/>
<path d="M15261 23423 c-1 -17 16 -25 25 -12 4 7 3 9 -4 5 -5 -3 -13 0 -15 6
-4 9 -6 10 -6 1z"/>
<path d="M10275 23400 c-4 -6 -1 -9 7 -8 7 2 12 -3 10 -10 -1 -8 2 -11 8 -7 8
5 7 11 -1 21 -14 17 -16 17 -24 4z"/>
<path d="M10155 23349 c-4 -6 -5 -12 -2 -15 2 -3 7 2 10 11 7 17 1 20 -8 4z"/>
<path d="M15615 23260 c-3 -5 -1 -10 4 -10 6 0 11 5 11 10 0 6 -2 10 -4 10 -3
0 -8 -4 -11 -10z"/>
<path d="M15600 23220 c-8 -5 -10 -10 -5 -10 6 0 17 5 25 10 8 5 11 10 5 10
-5 0 -17 -5 -25 -10z"/>
<path d="M15655 23220 c-3 -5 -1 -10 4 -10 6 0 11 5 11 10 0 6 -2 10 -4 10 -3
0 -8 -4 -11 -10z"/>
<path d="M15656 23178 c3 -5 10 -6 15 -3 13 9 11 12 -6 12 -8 0 -12 -4 -9 -9z"/>
<path d="M15710 23120 c0 -5 5 -10 11 -10 5 0 7 5 4 10 -3 6 -8 10 -11 10 -2
0 -4 -4 -4 -10z"/>
<path d="M15746 23118 c3 -5 10 -6 15 -3 13 9 11 12 -6 12 -8 0 -12 -4 -9 -9z"/>
<path d="M15776 23102 c-3 -5 1 -9 9 -9 8 0 12 4 9 9 -3 4 -7 8 -9 8 -2 0 -6
-4 -9 -8z"/>
<path d="M15755 23049 c-4 -6 -5 -12 -2 -15 2 -3 7 2 10 11 7 17 1 20 -8 4z"/>
<path d="M10016 23018 c3 -5 10 -6 15 -3 13 9 11 12 -6 12 -8 0 -12 -4 -9 -9z"/>
<path d="M15795 23010 c-4 -6 -11 -7 -17 -4 -7 4 -8 2 -4 -5 6 -9 11 -9 22 0
14 11 18 19 10 19 -3 0 -8 -5 -11 -10z"/>
<path d="M9975 22980 c3 -5 8 -10 11 -10 2 0 4 5 4 10 0 6 -5 10 -11 10 -5 0
-7 -4 -4 -10z"/>
<path d="M15843 22898 c-11 -19 -13 -39 -1 -32 5 3 7 9 4 12 -3 3 -1 11 5 19
6 7 9 13 6 13 -3 0 -9 -6 -14 -12z"/>
<path d="M9919 22858 c-6 -20 -6 -39 0 -42 4 -3 7 6 7 20 0 20 -4 32 -7 22z"/>
<path d="M9866 22802 c-3 -5 1 -9 9 -9 8 0 12 4 9 9 -3 4 -7 8 -9 8 -2 0 -6
-4 -9 -8z"/>
<path d="M9850 22776 c0 -2 8 -10 18 -17 15 -13 16 -12 3 4 -13 16 -21 21 -21
13z"/>
<path d="M9893 22755 c0 -8 4 -12 9 -9 5 3 6 10 3 15 -9 13 -12 11 -12 -6z"/>
<path d="M15915 22740 c3 -5 8 -10 11 -10 2 0 4 5 4 10 0 6 -5 10 -11 10 -5 0
-7 -4 -4 -10z"/>
<path d="M9886 22713 c-6 -14 -5 -15 5 -6 7 7 10 15 7 18 -3 3 -9 -2 -12 -12z"/>
<path d="M9815 22701 c-3 -5 -2 -12 3 -15 5 -3 9 1 9 9 0 17 -3 19 -12 6z"/>
<path d="M15910 22566 c0 -2 7 -7 16 -10 8 -3 12 -2 9 4 -6 10 -25 14 -25 6z"/>
<path d="M9736 22542 c-2 -4 -1 -14 4 -22 7 -11 9 -9 7 8 -1 24 -3 26 -11 14z"/>
<path d="M9786 22538 c3 -5 10 -6 15 -3 13 9 11 12 -6 12 -8 0 -12 -4 -9 -9z"/>
<path d="M9735 22469 c-4 -6 -5 -12 -2 -15 2 -3 7 2 10 11 7 17 1 20 -8 4z"/>
<path d="M9695 22460 c3 -5 8 -10 11 -10 2 0 4 5 4 10 0 6 -5 10 -11 10 -5 0
-7 -4 -4 -10z"/>
<path d="M15985 22440 c-3 -6 1 -7 9 -4 18 7 21 14 7 14 -6 0 -13 -4 -16 -10z"/>
<path d="M15936 22413 c-6 -14 -5 -15 5 -6 7 7 10 15 7 18 -3 3 -9 -2 -12 -12z"/>
<path d="M9706 22402 c-3 -5 1 -9 9 -9 8 0 12 4 9 9 -3 4 -7 8 -9 8 -2 0 -6
-4 -9 -8z"/>
<path d="M9697 22361 c-4 -17 -3 -21 5 -13 5 5 8 16 6 23 -3 8 -7 3 -11 -10z"/>
<path d="M9610 22240 c0 -5 5 -10 11 -10 5 0 7 5 4 10 -3 6 -8 10 -11 10 -2 0
-4 -4 -4 -10z"/>
<path d="M9556 22153 c-6 -14 -5 -15 5 -6 7 7 10 15 7 18 -3 3 -9 -2 -12 -12z"/>
<path d="M15836 22121 c-3 -4 4 -7 14 -8 11 -1 22 2 24 6 3 4 -4 7 -14 8 -11
1 -22 -2 -24 -6z"/>
<path d="M9536 22101 c8 -8 43 -8 38 0 -2 4 -13 7 -24 6 -10 -1 -17 -3 -14 -6z"/>
<path d="M15913 22087 c0 -8 6 -14 14 -14 9 0 10 4 2 14 -6 7 -12 13 -14 13
-1 0 -2 -6 -2 -13z"/>
<path d="M9535 22060 c-3 -5 -1 -10 4 -10 6 0 11 5 11 10 0 6 -2 10 -4 10 -3
0 -8 -4 -11 -10z"/>
<path d="M15846 22038 c3 -5 10 -6 15 -3 13 9 11 12 -6 12 -8 0 -12 -4 -9 -9z"/>
<path d="M15779 22002 c9 -7 10 -11 2 -15 -7 -4 -8 -5 0 -3 15 2 13 20 -3 24
-10 3 -10 2 1 -6z"/>
<path d="M15814 21994 c1 -8 4 -15 7 -16 2 -2 3 -1 2 1 -2 2 2 9 7 16 7 8 5
12 -4 12 -8 0 -13 -6 -12 -13z"/>
<path d="M15830 21939 c0 -5 5 -7 10 -4 6 3 10 8 10 11 0 2 -4 4 -10 4 -5 0
-10 -5 -10 -11z"/>
<path d="M15915 21910 c-4 -6 -11 -7 -17 -4 -7 4 -8 2 -4 -5 6 -9 11 -9 22 0
14 11 18 19 10 19 -3 0 -8 -5 -11 -10z"/>
</g>
</svg>
